<svg xmlns="http://www.w3.org/2000/svg" viewBox="0 0 24 24">
  <!-- Circling comet: orbit ring + filled comet (uses currentColor for Flutter recolor). -->
  <path
    fill="none"
    stroke="currentColor"
    stroke-width="2"
    stroke-linecap="round"
    opacity="0.9"
    d="M4.8 12c0-4 3.2-7.2 7.2-7.2S19.2 8 19.2 12 16 19.2 12 19.2"
  />
  <path
    fill="currentColor"
    d="M18.7 6.2c.4-.4 1.1-.4 1.5 0l1 1c.4.4.4 1.1 0 1.5l-2.1 2.1c-.2.2-.5.3-.8.3h-1.3c-.6 0-1.1-.5-1.1-1.1V8.7c0-.3.1-.6.3-.8l2.5-2.5Z"
  />
  <path
    fill="none"
    stroke="currentColor"
    stroke-width="2"
    stroke-linecap="round"
    opacity="0.9"
    d="M15.3 9.7l-3.1 3.1"
  />
</svg>
